<svg xmlns="http://www.w3.org/2000/svg" width="2048" height="2048" viewBox="0 0 2048 2048">
<g fill-rule="evenodd">
<path d="M 566 508 L 512 565 L 471 632 L 442 697 L 404 836 L 388 958 L 387 1013 L 381 1037 L 381 1585 L 410 1589 L 613 1585 L 613 1436 L 617 1417 L 613 1358 L 617 1292 L 613 1278 L 614 1050 L 623 935 L 629 918 L 641 830 L 660 772 L 690 713 L 709 698 L 723 703 L 749 723 L 795 793 L 805 819 L 830 859 L 853 917 L 862 928 L 899 1016 L 915 1068 L 946 1129 L 972 1199 L 979 1206 L 999 1262 L 1017 1290 L 1024 1313 L 1040 1336 L 1066 1394 L 1082 1411 L 1099 1444 L 1144 1500 L 1206 1553 L 1281 1585 L 1331 1590 L 1395 1583 L 1425 1573 L 1484 1535 L 1535 1485 L 1566 1438 L 1580 1425 L 1587 1399 L 1612 1347 L 1626 1286 L 1634 1275 L 1639 1232 L 1646 1225 L 1654 1133 L 1661 1108 L 1661 1042 L 1667 1005 L 1663 971 L 1663 924 L 1667 919 L 1663 821 L 1667 810 L 1663 664 L 1665 460 L 1639 456 L 1436 457 L 1429 463 L 1434 590 L 1430 621 L 1434 692 L 1430 724 L 1434 770 L 1430 861 L 1434 872 L 1430 968 L 1434 974 L 1434 1010 L 1429 1025 L 1427 1115 L 1421 1129 L 1411 1218 L 1401 1233 L 1389 1287 L 1361 1337 L 1336 1354 L 1295 1323 L 1243 1239 L 1228 1201 L 1215 1183 L 1200 1141 L 1179 1106 L 1177 1091 L 1149 1035 L 1107 924 L 1099 914 L 1075 849 L 1066 837 L 1061 818 L 1031 762 L 1017 725 L 984 672 L 972 642 L 921 577 L 919 568 L 870 520 L 815 480 L 782 466 L 717 456 L 655 463 L 589 491 Z" fill="#DE9540"/>
<path d="M 1947 1910 L 1946 1943 L 1941 1946 L 1910 1947 L 1923 1959 L 1935 1983 L 1938 1981 L 1940 1973 L 1945 1964 L 1946 1947 L 1950 1945 L 1963 1945 L 1975 1939 L 1981 1938 L 1983 1936 L 1982 1934 L 1975 1932 L 1962 1925 Z" fill="#BEBEBD"/>
</g></svg>